<svg width="20" height="17" viewBox="0 0 20 17" fill="none" xmlns="http://www.w3.org/2000/svg">
<path fill-rule="evenodd" clip-rule="evenodd" d="M20 2.22304C19.2651 2.5577 18.4739 2.78401 17.644 2.88512C18.4915 2.36509 19.1419 1.54047 19.4482 0.558175C18.6548 1.0397 17.7778 1.39 16.841 1.5778C16.0944 0.760412 15.0272 0.25 13.8464 0.25C11.5819 0.25 9.74467 2.13395 9.74467 4.45729C9.74467 4.78714 9.77989 5.10735 9.85032 5.41552C6.4401 5.23978 3.41726 3.56647 1.39226 1.01803C1.03891 1.6416 0.836995 2.36509 0.836995 3.13552C0.836995 4.59452 1.56131 5.8826 2.66244 6.63739C1.99096 6.61693 1.35704 6.42551 0.802956 6.11252V6.16429C0.802956 8.20354 2.21753 9.9045 4.09579 10.2897C3.75184 10.3884 3.3891 10.4378 3.01461 10.4378C2.75049 10.4378 2.49222 10.4125 2.24218 10.3631C2.76458 12.034 4.27891 13.2511 6.07501 13.2836C4.671 14.4128 2.90074 15.0856 0.979043 15.0856C0.647997 15.0856 0.320479 15.0664 0 15.0279C1.81605 16.2196 3.9737 16.9166 6.28984 16.9166C13.8381 16.9166 17.9644 10.5064 17.9644 4.94604C17.9644 4.76306 17.9609 4.58009 17.9539 4.40071C18.7556 3.80724 19.4517 3.0669 20 2.22304Z" fill="#00D1FF"/>
</svg>
